<svg xmlns="http://www.w3.org/2000/svg" width="1024" height="1024" viewBox="0 0 1024 1024">
  <defs>
    <linearGradient id="background" x1="0" y1="0" x2="1" y2="1">
      <stop offset="0" stop-color="#38bdf8"/>
      <stop offset="0.48" stop-color="#2563eb"/>
      <stop offset="1" stop-color="#312e81"/>
    </linearGradient>
    <radialGradient id="glow" cx="0.32" cy="0.2" r="0.9">
      <stop offset="0" stop-color="#ffffff" stop-opacity="0.35"/>
      <stop offset="1" stop-color="#ffffff" stop-opacity="0"/>
    </radialGradient>
    <filter id="shadow" x="-30%" y="-30%" width="160%" height="160%">
      <feDropShadow dx="0" dy="24" stdDeviation="28" flood-color="#0f172a" flood-opacity="0.38"/>
    </filter>
  </defs>

  <rect x="32" y="32" width="960" height="960" rx="218" fill="url(#background)"/>
  <rect x="32" y="32" width="960" height="960" rx="218" fill="url(#glow)"/>
  <rect x="56" y="56" width="912" height="912" rx="194" fill="none" stroke="#ffffff" stroke-opacity="0.18" stroke-width="8"/>

  <g filter="url(#shadow)" fill="none" stroke="#ffffff" stroke-linecap="round" stroke-linejoin="round">
    <path d="M222 596 C248 374 372 258 512 258 C652 258 776 374 802 596" stroke-width="74"/>
    <path d="M512 570 L684 378" stroke-width="42"/>
    <circle cx="512" cy="570" r="54" fill="#ffffff" stroke="none"/>
  </g>
  <circle cx="512" cy="570" r="22" fill="#1d4ed8"/>
  <rect x="246" y="702" width="532" height="54" rx="27" fill="#ffffff" fill-opacity="0.92"/>
  <rect x="246" y="790" width="342" height="54" rx="27" fill="#ffffff" fill-opacity="0.72"/>
  <circle cx="742" cy="817" r="27" fill="#7dd3fc"/>
</svg>
