<svg xmlns="http://www.w3.org/2000/svg" width="660" height="400" viewBox="0 0 660 400">
  <defs>
    <linearGradient id="background" x1="0" y1="0" x2="1" y2="1">
      <stop offset="0" stop-color="#0f172a"/>
      <stop offset="0.52" stop-color="#172554"/>
      <stop offset="1" stop-color="#1e3a5f"/>
    </linearGradient>
    <radialGradient id="blueGlow" cx="0.1" cy="0.08" r="0.85">
      <stop offset="0" stop-color="#38bdf8" stop-opacity="0.28"/>
      <stop offset="1" stop-color="#38bdf8" stop-opacity="0"/>
    </radialGradient>
    <radialGradient id="purpleGlow" cx="0.92" cy="0.88" r="0.72">
      <stop offset="0" stop-color="#818cf8" stop-opacity="0.23"/>
      <stop offset="1" stop-color="#818cf8" stop-opacity="0"/>
    </radialGradient>
    <linearGradient id="arrow" x1="0" y1="0" x2="1" y2="0">
      <stop offset="0" stop-color="#7dd3fc"/>
      <stop offset="1" stop-color="#ffffff"/>
    </linearGradient>
  </defs>

  <rect width="660" height="400" fill="url(#background)"/>
  <rect width="660" height="400" fill="url(#blueGlow)"/>
  <rect width="660" height="400" fill="url(#purpleGlow)"/>
  <path d="M0 330 C150 276 250 430 414 350 C522 297 578 313 660 286 L660 400 L0 400 Z" fill="#ffffff" fill-opacity="0.035"/>

  <text x="330" y="51" text-anchor="middle" fill="#ffffff" font-family="-apple-system, BlinkMacSystemFont, 'PingFang SC', sans-serif" font-size="25" font-weight="700">MacBoard</text>
  <text x="330" y="80" text-anchor="middle" fill="#cbd5e1" font-family="-apple-system, BlinkMacSystemFont, 'PingFang SC', sans-serif" font-size="14">拖动到“应用程序”完成安装</text>

  <g fill="none" stroke="#7dd3fc" stroke-opacity="0.2" stroke-linecap="round" stroke-linejoin="round">
    <path d="M265 205 H390" stroke-width="15"/>
    <path d="M370 187 L391 205 L370 223" stroke-width="15"/>
  </g>
  <g fill="none" stroke="url(#arrow)" stroke-linecap="round" stroke-linejoin="round">
    <path d="M265 205 H390" stroke-width="7"/>
    <path d="M370 187 L391 205 L370 223" stroke-width="7"/>
  </g>
  <text x="328" y="176" text-anchor="middle" fill="#93c5fd" font-family="-apple-system, BlinkMacSystemFont, 'PingFang SC', sans-serif" font-size="12" font-weight="600" letter-spacing="1">拖动安装</text>

  <rect x="175" y="326" width="310" height="1" fill="#ffffff" fill-opacity="0.13"/>
  <text x="330" y="354" text-anchor="middle" fill="#94a3b8" font-family="-apple-system, BlinkMacSystemFont, 'PingFang SC', sans-serif" font-size="11">macOS 13+ · Apple 芯片与 Intel Mac</text>
</svg>
